<svg width="36" height="36" viewBox="0 0 36 36" fill="none" xmlns="http://www.w3.org/2000/svg">
<g clip-path="url(#clip0_4070_52)">
<rect width="36" height="36" rx="18" fill="#F3F3F3"/>
<path d="M27.36 0H8.64C3.86835 0 0 3.94714 0 8.81633V27.1837C0 32.0527 3.86835 36 8.64 36H27.36C32.1318 36 36 32.0527 36 27.1837V8.81633C36 3.94714 32.1318 0 27.36 0ZM28.5833 26.2748V27.0462C29.0135 27.007 29.4019 27.3378 29.3991 27.7794V28.65H21.6835V27.7794C21.6807 27.3378 22.07 27.0069 22.5 27.0462V26.2748C22.5 25.9381 22.7288 25.6595 23.037 25.5738L23.0228 18.8934C22.7844 16.2354 20.5625 14.1517 17.8575 14.1517C15.1518 14.1517 12.9306 16.2354 12.6923 18.8934L12.6778 25.5635C13.0192 25.6284 13.4755 25.8823 13.4871 26.2749V27.0464C13.9165 27.0072 14.3056 27.338 14.3028 27.7795V28.6502H6.58725V27.7795C6.5844 27.338 6.9735 27.007 7.40295 27.0464V26.2749C7.40295 25.8879 7.7046 25.5788 8.08335 25.5519V13.4677H7.3476L6.4347 10.3592L10.3955 10.3584V7.34985H25.3197V10.3584H29.5526L28.6389 13.4677H27.9038V25.5517C28.2816 25.5788 28.5833 25.8877 28.5833 26.2748Z" fill="#605F5C"/>
</g>
<defs>
<clipPath id="clip0_4070_52">
<rect width="36" height="36" rx="18" fill="white"/>
</clipPath>
</defs>
</svg>
