<svg width="193" height="183" viewBox="0 0 193 183" fill="none" xmlns="http://www.w3.org/2000/svg">
<path opacity="0.39" d="M132.735 65.638C153.352 76.486 153.807 105.758 133.735 117.3L133.257 117.57L130.855 118.896C125.979 121.588 121.937 125.563 119.162 130.385L118.898 130.853L116.493 135.208C105.452 155.205 76.9188 155.566 65.3221 136.043L65.0521 135.579L62.4881 131.09C59.8692 126.504 56.1058 122.678 51.5694 119.986L51.1275 119.729L49.3038 118.687C28.93 107.052 29.6744 77.5159 50.4086 66.8527L50.903 66.6041L52.2613 65.9349C58.0182 63.1006 62.7114 58.4996 65.6591 52.812L65.9387 52.2575C76.3344 31.1424 106.249 30.7522 117.511 51.2632L117.773 51.7521C120.524 56.98 124.762 61.3095 129.932 64.1568L130.435 64.4275L132.735 65.638Z" fill="#1B1504" fill-opacity="0.5" stroke="#1B1504"/>
<path opacity="0.39" d="M75.4903 52.037C86.1513 30.3826 116.977 30.1588 128.216 51.5191C131.008 56.8267 135.36 61.1928 140.667 63.9853L142.967 65.1954C164.1 76.314 164.404 106.465 143.5 118.007L141.097 119.334C136.146 122.068 132.069 126.145 129.336 131.095L126.931 135.45C115.614 155.946 86.2281 156.157 74.6175 135.826L72.0537 131.337C69.3946 126.681 65.5362 122.822 60.8799 120.163L59.0558 119.122C38.1732 107.196 39.107 76.7779 60.6819 66.1557L62.041 65.4865C67.8847 62.6094 72.6133 57.8808 75.4903 52.037Z" fill="#1B1504" fill-opacity="0.5"/>
</svg>
