<?xml version="1.0" standalone="no"?>
<!DOCTYPE svg PUBLIC "-//W3C//DTD SVG 20010904//EN"
 "http://www.w3.org/TR/2001/REC-SVG-20010904/DTD/svg10.dtd">
<svg version="1.0" xmlns="http://www.w3.org/2000/svg"
 width="80.000000pt" height="80.000000pt" viewBox="0 0 80.000000 80.000000"
 preserveAspectRatio="xMidYMid meet">

<g transform="translate(0.000000,80.000000) scale(0.100000,-0.100000)"
fill="#000000" stroke="none">
<path d="M360 716 c-130 -36 -287 -162 -341 -272 -30 -64 -17 -65 18 -2 102
179 394 328 478 243 26 -26 31 -57 15 -99 -8 -22 -16 -26 -49 -26 -21 0 -68
-9 -103 -20 -112 -34 -192 -110 -186 -175 3 -26 7 -30 36 -33 65 -6 199 70
269 153 34 42 38 44 55 28 23 -21 32 -71 19 -106 -9 -23 -16 -27 -47 -27 -95
0 -208 -117 -124 -128 39 -6 93 15 140 55 41 35 43 36 37 13 -3 -14 -12 -44
-21 -67 -9 -23 -13 -55 -10 -70 8 -39 56 -107 79 -112 18 -3 18 -2 2 20 -63
86 -69 112 -42 176 17 40 20 79 6 87 -5 4 -5 23 1 47 13 47 -1 106 -31 133
-16 14 -17 22 -9 50 35 112 -51 171 -192 132z m128 -208 c-51 -67 -197 -158
-252 -158 -20 0 -26 5 -26 21 0 76 140 168 259 169 l44 0 -25 -32z m56 -146
c10 -16 -23 -49 -69 -71 -52 -24 -85 -27 -85 -7 0 36 137 105 154 78z"/>
</g>
</svg>
