<svg width="571" height="692" viewBox="0 0 571 692" fill="none" xmlns="http://www.w3.org/2000/svg">
<line x1="570" y1="0.5" x2="1" y2="0.50005" stroke="#999999"/>
<line x1="570" y1="244.5" x2="1" y2="244.5" stroke="#999999"/>
<line x1="570" y1="61.5" x2="1" y2="61.5" stroke="#999999"/>
<line x1="570" y1="305.5" x2="1" y2="305.5" stroke="#999999"/>
<line x1="570" y1="122.5" x2="1" y2="122.5" stroke="#999999"/>
<line x1="570" y1="366.5" x2="1" y2="366.5" stroke="#999999"/>
<line x1="570" y1="488.5" x2="1" y2="488.5" stroke="#999999"/>
<line x1="570" y1="183.5" x2="1" y2="183.5" stroke="#999999"/>
<line x1="570" y1="427.5" x2="1" y2="427.5" stroke="#999999"/>
<line x1="570" y1="549.5" x2="1" y2="549.5" stroke="#999999"/>
<line x1="570" y1="630.5" x2="1" y2="630.5" stroke="#999999"/>
<line x1="570" y1="20.5" x2="1" y2="20.5" stroke="#999999"/>
<line x1="570" y1="264.5" x2="1" y2="264.5" stroke="#999999"/>
<line x1="570" y1="81.5" x2="1" y2="81.5001" stroke="#999999"/>
<line x1="570" y1="325.5" x2="1" y2="325.5" stroke="#999999"/>
<line x1="570" y1="142.5" x2="1" y2="142.5" stroke="#999999"/>
<line x1="570" y1="386.5" x2="1" y2="386.5" stroke="#999999"/>
<line x1="570" y1="508.5" x2="1" y2="508.5" stroke="#999999"/>
<line x1="570" y1="203.5" x2="1" y2="203.5" stroke="#999999"/>
<line x1="570" y1="447.5" x2="1" y2="447.5" stroke="#999999"/>
<line x1="570" y1="569.5" x2="1" y2="569.5" stroke="#999999"/>
<line x1="570" y1="650.5" x2="1" y2="650.5" stroke="#999999"/>
<line x1="570" y1="41.5" x2="1" y2="41.5" stroke="#999999"/>
<line x1="570" y1="285.5" x2="1" y2="285.5" stroke="#999999"/>
<line x1="570" y1="102.5" x2="1" y2="102.5" stroke="#999999"/>
<line x1="570" y1="346.5" x2="1" y2="346.5" stroke="#999999"/>
<line x1="570" y1="163.5" x2="1" y2="163.5" stroke="#999999"/>
<line x1="570" y1="407.5" x2="1" y2="407.5" stroke="#999999"/>
<line x1="570" y1="529.5" x2="1" y2="529.5" stroke="#999999"/>
<line x1="570" y1="610.5" x2="1" y2="610.5" stroke="#999999"/>
<line x1="570" y1="224.5" x2="1" y2="224.5" stroke="#999999"/>
<line x1="570" y1="468.5" x2="1" y2="468.5" stroke="#999999"/>
<line x1="570" y1="590.5" x2="1" y2="590.5" stroke="#999999"/>
<line x1="570" y1="671.5" x2="1" y2="671.5" stroke="#999999"/>
<line x1="570" y1="691.5" x2="1" y2="691.5" stroke="#999999"/>
<line x1="387" y1="691.5" x2="387" y2="0.5" stroke="#999999"/>
<line x1="326" y1="691.5" x2="326" y2="0.5" stroke="#999999"/>
<line x1="509" y1="691.5" x2="509" y2="0.5" stroke="#999999"/>
<line x1="265" y1="691.5" x2="265" y2="0.5" stroke="#999999"/>
<line x1="143" y1="691.5" x2="143" y2="0.5" stroke="#999999"/>
<line x1="448" y1="691.5" x2="448" y2="0.5" stroke="#999999"/>
<line x1="204" y1="691.5" x2="204" y2="0.5" stroke="#999999"/>
<line x1="82" y1="691.5" x2="82" y2="0.5" stroke="#999999"/>
<line x1="367" y1="691.5" x2="367" y2="0.5" stroke="#999999"/>
<line x1="550" y1="691.5" x2="550" y2="0.5" stroke="#999999"/>
<line x1="570" y1="691.5" x2="570" y2="0.5" stroke="#999999"/>
<line x1="306" y1="691.5" x2="306" y2="0.5" stroke="#999999"/>
<line x1="489" y1="691.5" x2="489" y2="0.5" stroke="#999999"/>
<line x1="245" y1="691.5" x2="245" y2="0.5" stroke="#999999"/>
<line x1="123" y1="691.5" x2="123" y2="0.5" stroke="#999999"/>
<line x1="428" y1="691.5" x2="428" y2="0.5" stroke="#999999"/>
<line x1="184" y1="691.5" x2="184" y2="0.5" stroke="#999999"/>
<line x1="62" y1="691.5" x2="62" y2="0.5" stroke="#999999"/>
<line x1="346" y1="691.5" x2="346" y2="0.5" stroke="#999999"/>
<line x1="529" y1="691.5" x2="529" y2="0.5" stroke="#999999"/>
<line x1="285" y1="691.5" x2="285" y2="0.5" stroke="#999999"/>
<line x1="468" y1="691.5" x2="468" y2="0.5" stroke="#999999"/>
<line x1="224" y1="691.5" x2="224" y2="0.5" stroke="#999999"/>
<line x1="102" y1="691.5" x2="102" y2="0.5" stroke="#999999"/>
<line x1="21" y1="691.5" x2="21" y2="0.5" stroke="#999999"/>
<line x1="1" y1="691.5" x2="0.999975" y2="0.5" stroke="#999999"/>
<line x1="407" y1="691.5" x2="407" y2="0.5" stroke="#999999"/>
<line x1="163" y1="691.5" x2="163" y2="0.5" stroke="#999999"/>
<line x1="41" y1="691.5" x2="41" y2="0.5" stroke="#999999"/>
</svg>
