<svg width="510" height="1072" viewBox="0 0 510 1072" fill="none" xmlns="http://www.w3.org/2000/svg">
<circle cx="6.09375" cy="33.5938" r="33.0938" fill="#E0DDD8" stroke="#999999"/>
<circle cx="274.844" cy="33.5938" r="33.0938" fill="#E0DDD8" stroke="#999999"/>
<circle cx="6.09375" cy="567.359" r="33.0938" fill="#E0DDD8" stroke="#999999"/>
<circle cx="274.844" cy="567.359" r="33.0938" fill="#E0DDD8" stroke="#999999"/>
<circle cx="6.09375" cy="302.344" r="33.0938" fill="#E0DDD8" stroke="#999999"/>
<circle cx="274.844" cy="302.344" r="33.0938" fill="#605F5C" stroke="#999999"/>
<circle cx="6.09375" cy="836.109" r="33.0938" fill="#E0DDD8" stroke="#999999"/>
<circle cx="274.844" cy="836.109" r="33.0938" fill="#E0DDD8" stroke="#999999"/>
<circle cx="6.09375" cy="167.969" r="33.0938" fill="#999999" stroke="#999999"/>
<circle cx="274.844" cy="167.969" r="33.0938" fill="#F3F3F3" stroke="#999999"/>
<circle cx="6.09375" cy="701.734" r="33.0938" fill="#E0DDD8" stroke="#999999"/>
<circle cx="274.844" cy="701.734" r="33.0938" fill="#999999" stroke="#999999"/>
<circle cx="6.09375" cy="436.719" r="33.0938" fill="#E0DDD8" stroke="#999999"/>
<circle cx="274.844" cy="436.719" r="33.0938" fill="#E0DDD8" stroke="#999999"/>
<circle cx="6.09375" cy="970.484" r="33.0938" fill="#E0DDD8" stroke="#999999"/>
<circle cx="274.844" cy="970.484" r="33.0938" fill="#999999" stroke="#999999"/>
<circle cx="140.469" cy="33.5938" r="33.0938" fill="#E0DDD8" stroke="#999999"/>
<circle cx="409.219" cy="33.5938" r="33.0938" fill="#605F5C" stroke="#999999"/>
<circle cx="140.469" cy="567.359" r="33.0938" fill="#605F5C" stroke="#999999"/>
<circle cx="409.219" cy="567.359" r="33.0938" fill="#999999" stroke="#999999"/>
<circle cx="140.469" cy="302.344" r="33.0938" fill="#E0DDD8" stroke="#999999"/>
<circle cx="409.219" cy="302.344" r="33.0938" fill="#605F5C" stroke="#999999"/>
<circle cx="140.469" cy="836.109" r="33.0938" fill="#E0DDD8" stroke="#999999"/>
<circle cx="409.219" cy="836.109" r="33.0938" fill="#4E4E4E" stroke="#999999"/>
<circle cx="140.469" cy="167.969" r="33.0938" fill="#999999" stroke="#999999"/>
<circle cx="409.219" cy="167.969" r="33.0938" fill="#E0DDD8" stroke="#999999"/>
<circle cx="140.469" cy="701.734" r="33.0938" fill="#E0DDD8" stroke="#999999"/>
<circle cx="409.219" cy="701.734" r="33.0938" fill="#E0DDD8" stroke="#999999"/>
<circle cx="140.469" cy="436.719" r="33.0938" fill="#605F5C" stroke="#999999"/>
<circle cx="409.219" cy="436.719" r="33.0938" fill="#E0DDD8" stroke="#999999"/>
<circle cx="140.469" cy="970.484" r="33.0938" fill="#E0DDD8" stroke="#999999"/>
<circle cx="409.219" cy="970.484" r="33.0938" fill="#605F5C" stroke="#999999"/>
<circle cx="73.2812" cy="33.5938" r="33.0938" fill="#E0DDD8" stroke="#999999"/>
<circle cx="342.031" cy="33.5938" r="33.0938" fill="#E0DDD8" stroke="#999999"/>
<circle cx="73.2812" cy="567.359" r="33.0938" fill="#E0DDD8" stroke="#999999"/>
<circle cx="342.031" cy="567.359" r="33.0938" fill="#605F5C" stroke="#999999"/>
<circle cx="73.2812" cy="302.344" r="33.0938" fill="#E0DDD8" stroke="#999999"/>
<circle cx="342.031" cy="302.344" r="33.0938" fill="#E0DDD8" stroke="#999999"/>
<circle cx="73.2812" cy="836.109" r="33.0938" fill="#E0DDD8" stroke="#999999"/>
<circle cx="342.031" cy="836.109" r="33.0938" fill="#E0DDD8" stroke="#999999"/>
<circle cx="73.2812" cy="167.969" r="33.0938" fill="#605F5C" stroke="#999999"/>
<circle cx="342.031" cy="167.969" r="33.0938" fill="#605F5C" stroke="#999999"/>
<circle cx="73.2812" cy="701.734" r="33.0938" fill="#E0DDD8" stroke="#999999"/>
<circle cx="342.031" cy="701.734" r="33.0938" fill="#E0DDD8" stroke="#999999"/>
<circle cx="73.2812" cy="436.719" r="33.0938" fill="#605F5C" stroke="#999999"/>
<circle cx="342.031" cy="436.719" r="33.0938" fill="#E0DDD8" stroke="#999999"/>
<circle cx="73.2812" cy="970.484" r="33.0938" fill="#E0DDD8" stroke="#999999"/>
<circle cx="342.031" cy="970.484" r="33.0938" fill="#999999" stroke="#999999"/>
<circle cx="207.656" cy="33.5938" r="33.0938" fill="#E0DDD8" stroke="#999999"/>
<circle cx="476.406" cy="33.5938" r="33.0938" fill="#F3F3F3" stroke="#999999"/>
<circle cx="207.656" cy="567.359" r="33.0938" fill="#E0DDD8" stroke="#999999"/>
<circle cx="476.406" cy="567.359" r="33.0938" fill="#E0DDD8" stroke="#999999"/>
<circle cx="207.656" cy="302.344" r="33.0938" fill="#605F5C" stroke="#999999"/>
<circle cx="476.406" cy="302.344" r="33.0938" fill="#E0DDD8" stroke="#999999"/>
<circle cx="207.656" cy="836.109" r="33.0938" fill="#999999" stroke="#999999"/>
<circle cx="476.406" cy="836.109" r="33.0938" fill="#E0DDD8" stroke="#999999"/>
<circle cx="207.656" cy="167.969" r="33.0938" fill="#E0DDD8" stroke="#999999"/>
<circle cx="476.406" cy="167.969" r="33.0938" fill="#605F5C" stroke="#999999"/>
<circle cx="207.656" cy="701.734" r="33.0938" fill="#E0DDD8" stroke="#999999"/>
<circle cx="476.406" cy="701.734" r="33.0938" fill="#4E4E4E" stroke="#999999"/>
<circle cx="207.656" cy="436.719" r="33.0938" fill="#605F5C" stroke="#999999"/>
<circle cx="476.406" cy="436.719" r="33.0938" fill="#E0DDD8" stroke="#999999"/>
<circle cx="207.656" cy="970.484" r="33.0938" fill="#E0DDD8" stroke="#999999"/>
<circle cx="476.406" cy="970.484" r="33.0938" fill="#999999" stroke="#999999"/>
<circle cx="140.469" cy="100.781" r="33.0938" fill="#E0DDD8" stroke="#999999"/>
<circle cx="409.219" cy="100.781" r="33.0938" fill="#605F5C" stroke="#999999"/>
<circle cx="140.469" cy="634.547" r="33.0938" fill="#999999" stroke="#999999"/>
<circle cx="409.219" cy="634.547" r="33.0938" fill="#4E4E4E" stroke="#999999"/>
<circle cx="140.469" cy="369.531" r="33.0938" fill="#E0DDD8" stroke="#999999"/>
<circle cx="409.219" cy="369.531" r="33.0938" fill="#E0DDD8" stroke="#999999"/>
<circle cx="140.469" cy="903.297" r="33.0938" fill="#E0DDD8" stroke="#999999"/>
<circle cx="409.219" cy="903.297" r="33.0938" fill="#E0DDD8" stroke="#999999"/>
<circle cx="140.469" cy="235.156" r="33.0938" fill="#E0DDD8" stroke="#999999"/>
<circle cx="409.219" cy="235.156" r="33.0938" fill="#605F5C" stroke="#999999"/>
<circle cx="140.469" cy="768.922" r="33.0938" fill="#4E4E4E" stroke="#999999"/>
<circle cx="409.219" cy="768.922" r="33.0938" fill="#4E4E4E" stroke="#999999"/>
<circle cx="140.469" cy="503.906" r="33.0938" fill="#605F5C" stroke="#999999"/>
<circle cx="409.219" cy="503.906" r="33.0938" fill="#999999" stroke="#999999"/>
<circle cx="140.469" cy="1037.67" r="33.0938" fill="#E0DDD8" stroke="#999999"/>
<circle cx="409.219" cy="1037.67" r="33.0938" fill="#999999" stroke="#999999"/>
<circle cx="73.2812" cy="100.781" r="33.0938" fill="#E0DDD8" stroke="#999999"/>
<circle cx="342.031" cy="100.781" r="33.0938" fill="#605F5C" stroke="#999999"/>
<circle cx="73.2812" cy="634.547" r="33.0938" fill="#F3F3F3" stroke="#999999"/>
<circle cx="342.031" cy="634.547" r="33.0938" fill="#E0DDD8" stroke="#999999"/>
<circle cx="73.2812" cy="369.531" r="33.0938" fill="#E0DDD8" stroke="#999999"/>
<circle cx="342.031" cy="369.531" r="33.0938" fill="#605F5C" stroke="#999999"/>
<circle cx="73.2812" cy="903.297" r="33.0938" fill="#E0DDD8" stroke="#999999"/>
<circle cx="342.031" cy="903.297" r="33.0938" fill="#605F5C" stroke="#999999"/>
<circle cx="73.2812" cy="235.156" r="33.0938" fill="#E0DDD8" stroke="#999999"/>
<circle cx="342.031" cy="235.156" r="33.0938" fill="#E0DDD8" stroke="#999999"/>
<circle cx="73.2812" cy="768.922" r="33.0938" fill="#E0DDD8" stroke="#999999"/>
<circle cx="342.031" cy="768.922" r="33.0938" fill="#E0DDD8" stroke="#999999"/>
<circle cx="73.2812" cy="503.906" r="33.0938" fill="#605F5C" stroke="#999999"/>
<circle cx="342.031" cy="503.906" r="33.0938" fill="#605F5C" stroke="#999999"/>
<circle cx="73.2812" cy="1037.67" r="33.0938" fill="#E0DDD8" stroke="#999999"/>
<circle cx="342.031" cy="1037.67" r="33.0938" fill="#E0DDD8" stroke="#999999"/>
<circle cx="6.09375" cy="100.781" r="33.0938" fill="#E0DDD8" stroke="#999999"/>
<circle cx="274.844" cy="100.781" r="33.0938" fill="#E0DDD8" stroke="#999999"/>
<circle cx="6.09375" cy="634.547" r="33.0938" fill="#999999" stroke="#999999"/>
<circle cx="274.844" cy="634.547" r="33.0938" fill="#F3F3F3" stroke="#999999"/>
<circle cx="6.09375" cy="369.531" r="33.0938" fill="#E0DDD8" stroke="#999999"/>
<circle cx="274.844" cy="369.531" r="33.0938" fill="#605F5C" stroke="#999999"/>
<circle cx="6.09375" cy="903.297" r="33.0938" fill="#E0DDD8" stroke="#999999"/>
<circle cx="274.844" cy="903.297" r="33.0938" fill="#4E4E4E" stroke="#999999"/>
<circle cx="6.09375" cy="235.156" r="33.0938" fill="#999999" stroke="#999999"/>
<circle cx="274.844" cy="235.156" r="33.0938" fill="#605F5C" stroke="#999999"/>
<circle cx="6.09375" cy="768.922" r="33.0938" fill="#E0DDD8" stroke="#999999"/>
<circle cx="274.844" cy="768.922" r="33.0938" fill="#E0DDD8" stroke="#999999"/>
<circle cx="6.09375" cy="503.906" r="33.0938" fill="#E0DDD8" stroke="#999999"/>
<circle cx="274.844" cy="503.906" r="33.0938" fill="#605F5C" stroke="#999999"/>
<circle cx="6.09375" cy="1037.67" r="33.0938" fill="#E0DDD8" stroke="#999999"/>
<circle cx="274.844" cy="1037.67" r="33.0938" fill="#E0DDD8" stroke="#999999"/>
<circle cx="207.656" cy="100.781" r="33.0938" fill="#605F5C" stroke="#999999"/>
<circle cx="476.406" cy="100.781" r="33.0938" fill="#1B1504" stroke="#999999"/>
<circle cx="207.656" cy="634.547" r="33.0938" fill="#999999" stroke="#999999"/>
<circle cx="476.406" cy="634.547" r="33.0938" fill="#E0DDD8" stroke="#999999"/>
<circle cx="207.656" cy="369.531" r="33.0938" fill="#1B1504" stroke="#999999"/>
<circle cx="476.406" cy="369.531" r="33.0938" fill="#E0DDD8" stroke="#999999"/>
<circle cx="207.656" cy="903.297" r="33.0938" fill="#F3F3F3" stroke="#999999"/>
<circle cx="476.406" cy="903.297" r="33.0938" fill="#E0DDD8" stroke="#999999"/>
<circle cx="207.656" cy="235.156" r="33.0938" fill="#E0DDD8" stroke="#999999"/>
<circle cx="476.406" cy="235.156" r="33.0938" fill="#E0DDD8" stroke="#999999"/>
<circle cx="207.656" cy="768.922" r="33.0938" fill="#999999" stroke="#999999"/>
<circle cx="476.406" cy="768.922" r="33.0938" fill="#E0DDD8" stroke="#999999"/>
<circle cx="207.656" cy="503.906" r="33.0938" fill="#605F5C" stroke="#999999"/>
<circle cx="476.406" cy="503.906" r="33.0938" fill="#E0DDD8" stroke="#999999"/>
<circle cx="207.656" cy="1037.67" r="33.0938" fill="#E0DDD8" stroke="#999999"/>
<circle cx="476.406" cy="1037.67" r="33.0938" fill="#605F5C" stroke="#999999"/>
</svg>
