<svg width="44" height="44" viewBox="0 0 44 44" fill="none" xmlns="http://www.w3.org/2000/svg">
<mask id="mask0_1382_8894" style="mask-type:alpha" maskUnits="userSpaceOnUse" x="0" y="0" width="44" height="44">
<circle cx="22" cy="22" r="20.5" fill="#1B1504" stroke="black" stroke-width="3"/>
</mask>
<g mask="url(#mask0_1382_8894)">
<circle cx="8.77528" cy="20.994" r="1.0995" fill="#605F5C"/>
<ellipse cx="23.5771" cy="20.994" rx="1.05369" ry="1.0995" fill="#605F5C"/>
<circle cx="38.2792" cy="20.994" r="1.0995" fill="#605F5C"/>
<ellipse cx="23.5771" cy="6.42372" rx="1.05369" ry="1.0995" fill="#605F5C"/>
<circle cx="38.2792" cy="6.42372" r="1.0995" fill="#605F5C"/>
<circle cx="8.77528" cy="6.42372" r="1.0995" fill="#605F5C"/>
<ellipse cx="8.77528" cy="35.7021" rx="1.0995" ry="1.05369" fill="#605F5C"/>
<circle cx="23.5771" cy="35.7021" r="1.05369" fill="#605F5C"/>
<ellipse cx="38.2792" cy="35.7021" rx="1.0995" ry="1.05369" fill="#605F5C"/>
<ellipse cx="23.5771" cy="-0.904408" rx="1.05369" ry="1.0995" fill="#605F5C"/>
<circle cx="38.2792" cy="-0.904408" r="1.0995" fill="#605F5C"/>
<circle cx="8.77528" cy="-0.904408" r="1.0995" fill="#605F5C"/>
<circle cx="8.77528" cy="28.4159" r="1.0995" fill="#605F5C"/>
<ellipse cx="23.5771" cy="28.4159" rx="1.05369" ry="1.0995" fill="#605F5C"/>
<circle cx="38.2792" cy="28.4159" r="1.0995" fill="#605F5C"/>
<circle cx="23.5771" cy="13.7998" r="1.05369" fill="#605F5C"/>
<ellipse cx="38.2792" cy="13.7998" rx="1.0995" ry="1.05369" fill="#605F5C"/>
<ellipse cx="8.77528" cy="13.7998" rx="1.0995" ry="1.05369" fill="#605F5C"/>
<ellipse cx="8.77528" cy="43.2099" rx="1.0995" ry="1.05369" fill="#605F5C"/>
<circle cx="23.5771" cy="43.2099" r="1.05369" fill="#605F5C"/>
<ellipse cx="38.2792" cy="43.2099" rx="1.0995" ry="1.05369" fill="#605F5C"/>
<ellipse cx="16.1513" cy="20.994" rx="1.05369" ry="1.0995" fill="#605F5C"/>
<circle cx="1.44715" cy="20.994" r="1.0995" fill="#605F5C"/>
<ellipse cx="30.9951" cy="20.994" rx="1.05369" ry="1.0995" fill="#605F5C"/>
<ellipse cx="30.9951" cy="6.42372" rx="1.05369" ry="1.0995" fill="#605F5C"/>
<ellipse cx="16.1513" cy="6.42372" rx="1.05369" ry="1.0995" fill="#605F5C"/>
<circle cx="16.1513" cy="35.7021" r="1.05369" fill="#605F5C"/>
<circle cx="1.44715" cy="6.42372" r="1.0995" fill="#605F5C"/>
<ellipse cx="1.44715" cy="35.7021" rx="1.0995" ry="1.05369" fill="#605F5C"/>
<circle cx="30.9951" cy="35.7021" r="1.05369" fill="#605F5C"/>
<ellipse cx="30.9951" cy="-0.904408" rx="1.05369" ry="1.0995" fill="#605F5C"/>
<ellipse cx="16.1513" cy="-0.904408" rx="1.05369" ry="1.0995" fill="#605F5C"/>
<ellipse cx="16.1513" cy="28.4159" rx="1.05369" ry="1.0995" fill="#605F5C"/>
<circle cx="1.44715" cy="-0.904408" r="1.0995" fill="#605F5C"/>
<circle cx="1.44715" cy="28.4159" r="1.0995" fill="#605F5C"/>
<ellipse cx="30.9951" cy="28.4159" rx="1.05369" ry="1.0995" fill="#605F5C"/>
<circle cx="30.9951" cy="13.7998" r="1.05369" fill="#605F5C"/>
<circle cx="16.1513" cy="13.7998" r="1.05369" fill="#605F5C"/>
<circle cx="16.1513" cy="43.2099" r="1.05369" fill="#605F5C"/>
<ellipse cx="1.44715" cy="13.7998" rx="1.0995" ry="1.05369" fill="#605F5C"/>
<ellipse cx="1.44715" cy="43.2099" rx="1.0995" ry="1.05369" fill="#605F5C"/>
<circle cx="30.9951" cy="43.2099" r="1.05369" fill="#605F5C"/>
<ellipse cx="12.3935" cy="20.994" rx="1.05369" ry="1.0995" fill="#605F5C"/>
<ellipse cx="27.2412" cy="20.994" rx="1.05369" ry="1.0995" fill="#605F5C"/>
<circle cx="41.9472" cy="20.994" r="1.0995" fill="#605F5C"/>
<ellipse cx="27.2412" cy="6.42372" rx="1.05369" ry="1.0995" fill="#605F5C"/>
<circle cx="41.9472" cy="6.42372" r="1.0995" fill="#605F5C"/>
<ellipse cx="12.3935" cy="6.42372" rx="1.05369" ry="1.0995" fill="#605F5C"/>
<circle cx="12.3935" cy="35.7021" r="1.05369" fill="#605F5C"/>
<circle cx="27.2412" cy="35.7021" r="1.05369" fill="#605F5C"/>
<ellipse cx="41.9472" cy="35.7021" rx="1.0995" ry="1.05369" fill="#605F5C"/>
<ellipse cx="27.2412" cy="-0.904408" rx="1.05369" ry="1.0995" fill="#605F5C"/>
<circle cx="41.9472" cy="-0.904408" r="1.0995" fill="#605F5C"/>
<ellipse cx="12.3935" cy="-0.904408" rx="1.05369" ry="1.0995" fill="#605F5C"/>
<ellipse cx="12.3935" cy="28.4159" rx="1.05369" ry="1.0995" fill="#605F5C"/>
<ellipse cx="27.2412" cy="28.4159" rx="1.05369" ry="1.0995" fill="#605F5C"/>
<circle cx="41.9472" cy="28.4159" r="1.0995" fill="#605F5C"/>
<circle cx="27.2412" cy="13.7998" r="1.05369" fill="#605F5C"/>
<ellipse cx="41.9472" cy="13.7998" rx="1.0995" ry="1.05369" fill="#605F5C"/>
<circle cx="12.3935" cy="13.7998" r="1.05369" fill="#605F5C"/>
<circle cx="12.3935" cy="43.2099" r="1.05369" fill="#605F5C"/>
<circle cx="27.2412" cy="43.2099" r="1.05369" fill="#605F5C"/>
<ellipse cx="41.9472" cy="43.2099" rx="1.0995" ry="1.05369" fill="#605F5C"/>
<circle cx="19.8651" cy="20.994" r="1.0995" fill="#605F5C"/>
<ellipse cx="5.15915" cy="20.994" rx="1.05369" ry="1.0995" fill="#605F5C"/>
<circle cx="34.6151" cy="20.994" r="1.0995" fill="#605F5C"/>
<circle cx="34.6151" cy="6.42372" r="1.0995" fill="#605F5C"/>
<circle cx="19.8651" cy="6.42372" r="1.0995" fill="#605F5C"/>
<ellipse cx="19.8651" cy="35.7021" rx="1.0995" ry="1.05369" fill="#605F5C"/>
<ellipse cx="5.15915" cy="6.42372" rx="1.05369" ry="1.0995" fill="#605F5C"/>
<circle cx="5.15915" cy="35.7021" r="1.05369" fill="#605F5C"/>
<ellipse cx="34.6151" cy="35.7021" rx="1.0995" ry="1.05369" fill="#605F5C"/>
<circle cx="34.6151" cy="-0.904408" r="1.0995" fill="#605F5C"/>
<circle cx="19.8651" cy="-0.904408" r="1.0995" fill="#605F5C"/>
<circle cx="19.8651" cy="28.4159" r="1.0995" fill="#605F5C"/>
<ellipse cx="5.15915" cy="-0.904408" rx="1.05369" ry="1.0995" fill="#605F5C"/>
<ellipse cx="5.15915" cy="28.4159" rx="1.05369" ry="1.0995" fill="#605F5C"/>
<circle cx="34.6151" cy="28.4159" r="1.0995" fill="#605F5C"/>
<ellipse cx="34.6151" cy="13.7998" rx="1.0995" ry="1.05369" fill="#605F5C"/>
<ellipse cx="19.8651" cy="13.7998" rx="1.0995" ry="1.05369" fill="#605F5C"/>
<ellipse cx="19.8651" cy="43.2099" rx="1.0995" ry="1.05369" fill="#605F5C"/>
<circle cx="5.15915" cy="13.7998" r="1.05369" fill="#605F5C"/>
<circle cx="5.15915" cy="43.2099" r="1.05369" fill="#605F5C"/>
<ellipse cx="34.6151" cy="43.2099" rx="1.0995" ry="1.05369" fill="#605F5C"/>
<ellipse cx="16.1513" cy="24.6581" rx="1.05369" ry="1.0995" fill="#605F5C"/>
<circle cx="1.44715" cy="24.6581" r="1.0995" fill="#605F5C"/>
<ellipse cx="30.9951" cy="24.6581" rx="1.05369" ry="1.0995" fill="#605F5C"/>
<circle cx="30.9951" cy="10.042" r="1.05369" fill="#605F5C"/>
<circle cx="16.1513" cy="10.042" r="1.05369" fill="#605F5C"/>
<ellipse cx="16.1513" cy="39.412" rx="1.05369" ry="1.0995" fill="#605F5C"/>
<ellipse cx="1.44715" cy="10.042" rx="1.0995" ry="1.05369" fill="#605F5C"/>
<circle cx="1.44715" cy="39.412" r="1.0995" fill="#605F5C"/>
<ellipse cx="30.9951" cy="39.412" rx="1.05369" ry="1.0995" fill="#605F5C"/>
<circle cx="30.9951" cy="2.80759" r="1.05369" fill="#605F5C"/>
<circle cx="16.1513" cy="2.80759" r="1.05369" fill="#605F5C"/>
<circle cx="16.1513" cy="32.0342" r="1.05369" fill="#605F5C"/>
<ellipse cx="1.44715" cy="2.80759" rx="1.0995" ry="1.05369" fill="#605F5C"/>
<ellipse cx="1.44715" cy="32.0342" rx="1.0995" ry="1.05369" fill="#605F5C"/>
<circle cx="30.9951" cy="32.0342" r="1.05369" fill="#605F5C"/>
<ellipse cx="30.9951" cy="17.5136" rx="1.05369" ry="1.0995" fill="#605F5C"/>
<ellipse cx="16.1513" cy="17.5136" rx="1.05369" ry="1.0995" fill="#605F5C"/>
<circle cx="1.44715" cy="17.5136" r="1.0995" fill="#605F5C"/>
<ellipse cx="12.3935" cy="24.6581" rx="1.05369" ry="1.0995" fill="#605F5C"/>
<ellipse cx="27.2412" cy="24.6581" rx="1.05369" ry="1.0995" fill="#605F5C"/>
<circle cx="41.9472" cy="24.6581" r="1.0995" fill="#605F5C"/>
<circle cx="27.2412" cy="10.042" r="1.05369" fill="#605F5C"/>
<ellipse cx="41.9472" cy="10.042" rx="1.0995" ry="1.05369" fill="#605F5C"/>
<circle cx="12.3935" cy="10.042" r="1.05369" fill="#605F5C"/>
<ellipse cx="12.3935" cy="39.412" rx="1.05369" ry="1.0995" fill="#605F5C"/>
<ellipse cx="27.2412" cy="39.412" rx="1.05369" ry="1.0995" fill="#605F5C"/>
<circle cx="41.9472" cy="39.412" r="1.0995" fill="#605F5C"/>
<circle cx="27.2412" cy="2.80759" r="1.05369" fill="#605F5C"/>
<ellipse cx="41.9472" cy="2.80759" rx="1.0995" ry="1.05369" fill="#605F5C"/>
<circle cx="12.3935" cy="2.80759" r="1.05369" fill="#605F5C"/>
<circle cx="12.3935" cy="32.0342" r="1.05369" fill="#605F5C"/>
<circle cx="27.2412" cy="32.0342" r="1.05369" fill="#605F5C"/>
<ellipse cx="41.9472" cy="32.0342" rx="1.0995" ry="1.05369" fill="#605F5C"/>
<ellipse cx="27.2412" cy="17.5136" rx="1.05369" ry="1.0995" fill="#605F5C"/>
<circle cx="41.9472" cy="17.5136" r="1.0995" fill="#605F5C"/>
<ellipse cx="12.3935" cy="17.5136" rx="1.05369" ry="1.0995" fill="#605F5C"/>
<circle cx="8.77528" cy="24.6581" r="1.0995" fill="#605F5C"/>
<ellipse cx="23.5771" cy="24.6581" rx="1.05369" ry="1.0995" fill="#605F5C"/>
<circle cx="38.2792" cy="24.6581" r="1.0995" fill="#605F5C"/>
<circle cx="23.5771" cy="10.042" r="1.05369" fill="#605F5C"/>
<ellipse cx="38.2792" cy="10.042" rx="1.0995" ry="1.05369" fill="#605F5C"/>
<ellipse cx="8.77528" cy="10.042" rx="1.0995" ry="1.05369" fill="#605F5C"/>
<circle cx="8.77528" cy="39.412" r="1.0995" fill="#605F5C"/>
<ellipse cx="23.5771" cy="39.412" rx="1.05369" ry="1.0995" fill="#605F5C"/>
<circle cx="38.2792" cy="39.412" r="1.0995" fill="#605F5C"/>
<circle cx="23.5771" cy="2.80759" r="1.05369" fill="#605F5C"/>
<ellipse cx="38.2792" cy="2.80759" rx="1.0995" ry="1.05369" fill="#605F5C"/>
<ellipse cx="8.77528" cy="2.80759" rx="1.0995" ry="1.05369" fill="#605F5C"/>
<ellipse cx="8.77528" cy="32.0342" rx="1.0995" ry="1.05369" fill="#605F5C"/>
<circle cx="23.5771" cy="32.0342" r="1.05369" fill="#605F5C"/>
<ellipse cx="38.2792" cy="32.0342" rx="1.0995" ry="1.05369" fill="#605F5C"/>
<ellipse cx="23.5771" cy="17.5136" rx="1.05369" ry="1.0995" fill="#605F5C"/>
<circle cx="38.2792" cy="17.5136" r="1.0995" fill="#605F5C"/>
<circle cx="8.77528" cy="17.5136" r="1.0995" fill="#605F5C"/>
<circle cx="19.8651" cy="24.6581" r="1.0995" fill="#605F5C"/>
<ellipse cx="5.15915" cy="24.6581" rx="1.05369" ry="1.0995" fill="#605F5C"/>
<circle cx="34.6151" cy="24.6581" r="1.0995" fill="#605F5C"/>
<ellipse cx="34.6151" cy="10.042" rx="1.0995" ry="1.05369" fill="#605F5C"/>
<ellipse cx="19.8651" cy="10.042" rx="1.0995" ry="1.05369" fill="#605F5C"/>
<circle cx="19.8651" cy="39.412" r="1.0995" fill="#605F5C"/>
<circle cx="5.15915" cy="10.042" r="1.05369" fill="#605F5C"/>
<ellipse cx="5.15915" cy="39.412" rx="1.05369" ry="1.0995" fill="#605F5C"/>
<circle cx="34.6151" cy="39.412" r="1.0995" fill="#605F5C"/>
<ellipse cx="34.6151" cy="2.80759" rx="1.0995" ry="1.05369" fill="#605F5C"/>
<ellipse cx="19.8651" cy="2.80759" rx="1.0995" ry="1.05369" fill="#605F5C"/>
<ellipse cx="19.8651" cy="32.0342" rx="1.0995" ry="1.05369" fill="#605F5C"/>
<circle cx="5.15915" cy="2.80759" r="1.05369" fill="#605F5C"/>
<circle cx="5.15915" cy="32.0342" r="1.05369" fill="#605F5C"/>
<ellipse cx="34.6151" cy="32.0342" rx="1.0995" ry="1.05369" fill="#605F5C"/>
<circle cx="34.6151" cy="17.5136" r="1.0995" fill="#605F5C"/>
<circle cx="19.8651" cy="17.5136" r="1.0995" fill="#605F5C"/>
<ellipse cx="5.15915" cy="17.5136" rx="1.05369" ry="1.0995" fill="#605F5C"/>
</g>
</svg>
