<svg width="127" height="29" viewBox="0 0 127 29" fill="none" xmlns="http://www.w3.org/2000/svg">
<path d="M116.645 22.131L116.27 17.0993L116.79 17.0414C117.426 19.9911 118.988 21.6683 121.533 21.6683C123.586 21.6683 125.003 20.5694 125.003 18.6898C125.003 16.8969 123.615 15.8847 120.983 14.9883C118.381 14.0918 116.414 12.9351 116.414 10.5638C116.414 8.16363 118.409 6.57314 121.359 6.57314C123.152 6.57314 124.077 7.23825 124.627 7.23825C125.032 7.23825 125.176 6.86232 125.118 6.39963L125.552 6.3418L126.622 11.2L126.102 11.3157C125.263 8.74199 123.701 7.1515 121.417 7.1515C119.624 7.1515 118.467 8.04796 118.467 9.60953C118.467 10.9398 119.422 12.0097 122.371 13.0218C125.465 14.0629 126.998 15.5666 126.998 17.7644C126.998 20.5694 124.511 22.2178 121.648 22.2178C119.537 22.2178 118.496 21.3213 117.744 21.3213C117.282 21.3213 117.05 21.6394 117.05 22.1021L116.645 22.131Z" fill="#1B1504"/>
<path d="M105.47 22.131L105.094 17.0993L105.614 17.0414C106.25 19.9911 107.812 21.6683 110.357 21.6683C112.41 21.6683 113.827 20.5694 113.827 18.6898C113.827 16.8969 112.439 15.8847 109.807 14.9883C107.205 14.0918 105.238 12.9351 105.238 10.5638C105.238 8.16363 107.234 6.57314 110.183 6.57314C111.976 6.57314 112.902 7.23825 113.451 7.23825C113.856 7.23825 114 6.86232 113.943 6.39963L114.376 6.3418L115.446 11.2L114.926 11.3157C114.087 8.74199 112.526 7.1515 110.241 7.1515C108.448 7.1515 107.292 8.04796 107.292 9.60953C107.292 10.9398 108.246 12.0097 111.195 13.0218C114.29 14.0629 115.822 15.5666 115.822 17.7644C115.822 20.5694 113.335 22.2178 110.472 22.2178C108.361 22.2178 107.32 21.3213 106.569 21.3213C106.106 21.3213 105.875 21.6394 105.875 22.1021L105.47 22.131Z" fill="#1B1504"/>
<path d="M98.1233 22.2179C94.1615 22.2179 90.8359 19.6731 90.8359 14.6992C90.8359 9.66746 94.2483 6.57324 98.4124 6.57324C101.767 6.57324 104.023 8.5975 104.023 11.258C104.023 12.5014 103.704 12.7617 101.94 12.7617H93.4386C93.4096 13.1376 93.3807 13.5136 93.3807 13.8895C93.3807 17.9091 95.6942 20.8587 99.1932 20.8587C101.68 20.8587 103.473 19.4128 104.774 17.3596L105.15 17.591C103.473 20.5406 101.304 22.2179 98.1233 22.2179ZM93.5253 12.2122H98.6149C101.015 12.2122 101.478 12.0966 101.478 11.0555C101.478 8.88668 100.379 7.12268 98.0654 7.12268C95.3471 7.12268 93.9302 9.58071 93.5253 12.2122Z" fill="#1B1504"/>
<path d="M84.2662 22.2179C80.3334 22.2179 77.0078 19.5285 77.0078 14.7859C77.0078 9.81205 80.5936 6.57324 84.8446 6.57324C87.7075 6.57324 89.9631 8.01914 89.9631 9.34937C89.9631 10.0434 89.5004 10.4482 88.8063 10.4482C86.8399 10.4482 87.1002 7.18052 84.1795 7.18052C81.4323 7.18052 79.5237 9.86989 79.5237 13.7738C79.5237 18.1404 81.8371 20.8876 85.2783 20.8876C87.7942 20.8876 89.616 19.4128 90.8884 17.3307L91.2644 17.591C89.5582 20.5695 87.3604 22.2179 84.2662 22.2179Z" fill="#1B1504"/>
<path d="M68.6906 22.2179C64.5842 22.2179 61.0273 19.7309 61.0273 14.5546C61.0273 9.32045 64.6421 6.57324 68.9219 6.57324C72.9994 6.57324 76.5852 9.06019 76.5852 14.2654C76.5852 19.4996 72.9705 22.2179 68.6906 22.2179ZM63.6589 14.2654C63.6589 18.8634 65.7988 21.6684 68.8063 21.6684C71.7559 21.6684 73.9248 18.979 73.9248 14.5257C73.9248 9.95664 71.7848 7.12268 68.8063 7.12268C65.8566 7.12268 63.6589 9.81205 63.6589 14.2654Z" fill="#1B1504"/>
<path d="M51.0039 21.177C52.7101 21.177 53.1438 20.7143 53.1438 17.5045V9.14716H51.0328V8.62664C52.5944 8.62664 54.4162 7.87477 54.9946 6.51562H55.5151V10.3328H55.6019C56.614 8.33746 58.0888 6.66022 59.795 6.66022C60.836 6.66022 61.559 7.32533 61.559 8.27962C61.559 9.08932 61.0384 9.58093 60.4022 9.58093C59.5347 9.58093 59.1299 8.62664 58.3202 8.62664C57.2502 8.62664 56.3248 9.81227 55.5151 11.5763V17.5045C55.5151 20.7143 55.8621 21.177 57.684 21.177H58.2045V21.6976H51.0039V21.177Z" fill="#1B1504"/>
<path d="M34.5445 28.4065C36.2218 28.4065 36.6556 27.9438 36.6556 24.7339V9.11824H34.5156V8.62664C36.0772 8.62664 37.8701 7.87477 38.4485 6.51562H38.9979V9.32067H39.0557C40.4438 7.78802 42.2367 6.57346 44.6369 6.57346C47.8757 6.57346 50.941 8.82906 50.941 13.9475C50.941 19.442 47.4709 22.2181 43.2199 22.2181C41.7451 22.2181 40.2414 21.8711 39.0268 21.1481V24.7339C39.0268 27.9438 39.3449 28.4065 41.1378 28.4065H41.7451V28.927H34.5445V28.4065ZM39.0268 19.7601C40.0968 20.83 41.5138 21.6686 43.2199 21.6686C46.2563 21.6686 48.3673 19.066 48.3673 14.6127C48.3673 10.3617 46.4298 7.81693 43.4224 7.81693C42.0632 7.81693 40.5595 8.36638 39.0268 10.1882V19.7601Z" fill="#1B1504"/>
<path d="M17.1317 21.177C18.7222 21.177 19.2138 20.7143 19.2138 17.5045V11.9522C19.2138 9.34959 17.9992 7.99044 15.946 7.99044C14.2977 7.99044 12.418 8.91582 10.9721 10.3328V17.5045C10.9721 20.7143 11.2035 21.177 13.0832 21.177V21.6976H6.46094V21.177C8.13818 21.177 8.60087 20.7143 8.60087 17.5045V9.14716H6.48986V8.62664C8.02251 8.62664 9.84434 7.87477 10.4516 6.51562H10.9721V9.58093H11.0011C12.5048 8.01936 14.8761 6.57346 17.1317 6.57346C19.6764 6.57346 21.585 8.01936 21.585 11.9522V17.5045C21.585 20.7143 21.8164 21.177 23.725 21.177V21.6976H17.1317V21.177Z" fill="#1B1504"/>
<path d="M0 21.1771C1.67724 21.1771 2.13993 20.7144 2.13993 17.5045V9.17616H0.0289179V8.62671C1.56157 8.62671 3.3834 7.87485 3.99068 6.5157H4.5112V17.5045C4.5112 20.7144 4.56904 21.1771 6.65113 21.1771V21.6976H0V21.1771ZM1.67724 2.0045C1.67724 1.05021 2.40019 0.29834 3.32557 0.29834C4.25094 0.29834 4.97389 1.05021 4.97389 2.0045C4.97389 2.95879 4.25094 3.68174 3.32557 3.68174C2.40019 3.68174 1.67724 2.95879 1.67724 2.0045Z" fill="#1B1504"/>
<ellipse cx="2.73529" cy="0.499728" rx="2.73529" ry="0.499728" transform="matrix(0.695221 -0.718796 0.718811 0.695206 26.5273 16.0908)" fill="#1B1504"/>
</svg>
