<svg width="510" height="1072" viewBox="0 0 510 1072" fill="none" xmlns="http://www.w3.org/2000/svg">
<circle cx="33.5938" cy="33.5938" r="33.0938" fill="#E0DDD8" stroke="#999999"/>
<circle cx="302.344" cy="33.5938" r="33.0938" fill="#E0DDD8" stroke="#999999"/>
<circle cx="33.5938" cy="567.359" r="33.0938" fill="#605F5C" stroke="#999999"/>
<circle cx="302.344" cy="567.359" r="33.0938" fill="#E0DDD8" stroke="#999999"/>
<circle cx="33.5938" cy="302.344" r="33.0938" fill="#E0DDD8" stroke="#999999"/>
<circle cx="33.5938" cy="235.594" r="33.0938" fill="#E0DDD8" stroke="#999999"/>
<circle cx="302.344" cy="302.344" r="33.0938" fill="#605F5C" stroke="#999999"/>
<circle cx="33.5938" cy="836.109" r="33.0938" fill="#E0DDD8" stroke="#999999"/>
<circle cx="302.344" cy="836.109" r="33.0938" fill="#E0DDD8" stroke="#999999"/>
<circle cx="33.5938" cy="167.969" r="33.0938" fill="#E0DDD8" stroke="#999999"/>
<circle cx="302.344" cy="167.969" r="33.0938" fill="#E0DDD8" stroke="#999999"/>
<circle cx="33.5938" cy="701.734" r="33.0938" fill="#E0DDD8" stroke="#999999"/>
<circle cx="302.344" cy="701.734" r="33.0938" fill="#999999" stroke="#999999"/>
<circle cx="33.5938" cy="436.719" r="33.0938" fill="#E0DDD8" stroke="#999999"/>
<circle cx="302.344" cy="436.719" r="33.0938" fill="#E0DDD8" stroke="#999999"/>
<circle cx="33.5938" cy="970.484" r="33.0938" fill="#E0DDD8" stroke="#999999"/>
<circle cx="302.344" cy="970.484" r="33.0938" fill="#999999" stroke="#999999"/>
<circle cx="167.969" cy="33.5938" r="33.0938" fill="#E0DDD8" stroke="#999999"/>
<circle cx="436.719" cy="33.5938" r="33.0938" fill="#605F5C" stroke="#999999"/>
<circle cx="167.969" cy="567.359" r="33.0938" fill="#605F5C" stroke="#999999"/>
<circle cx="436.719" cy="567.359" r="33.0938" fill="#999999" stroke="#999999"/>
<circle cx="167.969" cy="302.344" r="33.0938" fill="#E0DDD8" stroke="#999999"/>
<circle cx="436.719" cy="302.344" r="33.0938" fill="#605F5C" stroke="#999999"/>
<circle cx="167.969" cy="836.109" r="33.0938" fill="#E0DDD8" stroke="#999999"/>
<circle cx="436.719" cy="836.109" r="33.0938" fill="#4E4E4E" stroke="#999999"/>
<circle cx="167.969" cy="167.969" r="33.0938" fill="#999999" stroke="#999999"/>
<circle cx="436.719" cy="167.969" r="33.0938" fill="#E0DDD8" stroke="#999999"/>
<circle cx="167.969" cy="701.734" r="33.0938" fill="#E0DDD8" stroke="#999999"/>
<circle cx="436.719" cy="701.734" r="33.0938" fill="#E0DDD8" stroke="#999999"/>
<circle cx="167.969" cy="436.719" r="33.0938" fill="#E0DDD8" stroke="#999999"/>
<circle cx="436.719" cy="436.719" r="33.0938" fill="#4E4E4E" stroke="#999999"/>
<circle cx="167.969" cy="970.484" r="33.0938" fill="#E0DDD8" stroke="#999999"/>
<circle cx="436.719" cy="970.484" r="33.0938" fill="#605F5C" stroke="#999999"/>
<circle cx="100.781" cy="33.5938" r="33.0938" fill="#E0DDD8" stroke="#999999"/>
<circle cx="369.531" cy="33.5938" r="33.0938" fill="#E0DDD8" stroke="#999999"/>
<circle cx="100.781" cy="567.359" r="33.0938" fill="#E0DDD8" stroke="#999999"/>
<circle cx="369.531" cy="567.359" r="33.0938" fill="#605F5C" stroke="#999999"/>
<circle cx="100.781" cy="302.344" r="33.0938" fill="#E0DDD8" stroke="#999999"/>
<circle cx="369.531" cy="302.344" r="33.0938" fill="#E0DDD8" stroke="#999999"/>
<circle cx="100.781" cy="836.109" r="33.0938" fill="#E0DDD8" stroke="#999999"/>
<circle cx="369.531" cy="836.109" r="33.0938" fill="#E0DDD8" stroke="#999999"/>
<circle cx="100.781" cy="167.969" r="33.0938" fill="#605F5C" stroke="#999999"/>
<circle cx="369.531" cy="167.969" r="33.0938" fill="#605F5C" stroke="#999999"/>
<circle cx="100.781" cy="701.734" r="33.0938" fill="#E0DDD8" stroke="#999999"/>
<circle cx="369.531" cy="701.734" r="33.0938" fill="#E0DDD8" stroke="#999999"/>
<circle cx="100.781" cy="436.719" r="33.0938" fill="#4E4E4E" stroke="#999999"/>
<circle cx="369.531" cy="436.719" r="33.0938" fill="#E0DDD8" stroke="#999999"/>
<circle cx="100.781" cy="970.484" r="33.0938" fill="#E0DDD8" stroke="#999999"/>
<circle cx="369.531" cy="970.484" r="33.0938" fill="#999999" stroke="#999999"/>
<circle cx="235.156" cy="33.5938" r="33.0938" fill="#E0DDD8" stroke="#999999"/>
<circle cx="503.906" cy="33.5938" r="33.0938" fill="#E0DDD8" stroke="#999999"/>
<circle cx="235.156" cy="567.359" r="33.0938" fill="#E0DDD8" stroke="#999999"/>
<circle cx="503.906" cy="567.359" r="33.0938" fill="#E0DDD8" stroke="#999999"/>
<circle cx="235.156" cy="302.344" r="33.0938" fill="#605F5C" stroke="#999999"/>
<circle cx="503.906" cy="302.344" r="33.0938" fill="#E0DDD8" stroke="#999999"/>
<circle cx="235.156" cy="836.109" r="33.0938" fill="#999999" stroke="#999999"/>
<circle cx="503.906" cy="836.109" r="33.0938" fill="#E0DDD8" stroke="#999999"/>
<circle cx="235.156" cy="167.969" r="33.0938" fill="#E0DDD8" stroke="#999999"/>
<circle cx="503.906" cy="167.969" r="33.0938" fill="#605F5C" stroke="#999999"/>
<circle cx="235.156" cy="701.734" r="33.0938" fill="#E0DDD8" stroke="#999999"/>
<circle cx="503.906" cy="701.734" r="33.0938" fill="#4E4E4E" stroke="#999999"/>
<circle cx="235.156" cy="436.719" r="33.0938" fill="#E0DDD8" stroke="#999999"/>
<circle cx="503.906" cy="436.719" r="33.0938" fill="#E0DDD8" stroke="#999999"/>
<circle cx="235.156" cy="970.484" r="33.0938" fill="#E0DDD8" stroke="#999999"/>
<circle cx="503.906" cy="970.484" r="33.0938" fill="#999999" stroke="#999999"/>
<circle cx="167.969" cy="100.781" r="33.0938" fill="#E0DDD8" stroke="#999999"/>
<circle cx="436.719" cy="100.781" r="33.0938" fill="#605F5C" stroke="#999999"/>
<circle cx="167.969" cy="634.547" r="33.0938" fill="#999999" stroke="#999999"/>
<circle cx="436.719" cy="634.547" r="33.0938" fill="#4E4E4E" stroke="#999999"/>
<circle cx="167.969" cy="369.531" r="33.0938" fill="#1B1504" stroke="#999999"/>
<circle cx="436.719" cy="369.531" r="33.0938" fill="#E0DDD8" stroke="#999999"/>
<circle cx="167.969" cy="903.297" r="33.0938" fill="#E0DDD8" stroke="#999999"/>
<circle cx="436.719" cy="903.297" r="33.0938" fill="#E0DDD8" stroke="#999999"/>
<circle cx="167.969" cy="235.156" r="33.0938" fill="#E0DDD8" stroke="#999999"/>
<circle cx="436.719" cy="235.156" r="33.0938" fill="#605F5C" stroke="#999999"/>
<circle cx="167.969" cy="768.922" r="33.0938" fill="#4E4E4E" stroke="#999999"/>
<circle cx="436.719" cy="768.922" r="33.0938" fill="#4E4E4E" stroke="#999999"/>
<circle cx="167.969" cy="503.906" r="33.0938" fill="#E0DDD8" stroke="#999999"/>
<circle cx="436.719" cy="503.906" r="33.0938" fill="#999999" stroke="#999999"/>
<circle cx="167.969" cy="1037.67" r="33.0938" fill="#E0DDD8" stroke="#999999"/>
<circle cx="436.719" cy="1037.67" r="33.0938" fill="#999999" stroke="#999999"/>
<circle cx="100.781" cy="100.781" r="33.0938" fill="#E0DDD8" stroke="#999999"/>
<circle cx="369.531" cy="100.781" r="33.0938" fill="#605F5C" stroke="#999999"/>
<circle cx="100.781" cy="634.547" r="33.0938" fill="#E0DDD8" stroke="#999999"/>
<circle cx="369.531" cy="634.547" r="33.0938" fill="#E0DDD8" stroke="#999999"/>
<circle cx="100.781" cy="369.531" r="33.0938" fill="#E0DDD8" stroke="#999999"/>
<circle cx="369.531" cy="369.531" r="33.0938" fill="#E0DDD8" stroke="#999999"/>
<circle cx="100.781" cy="903.297" r="33.0938" fill="#E0DDD8" stroke="#999999"/>
<circle cx="369.531" cy="903.297" r="33.0938" fill="#605F5C" stroke="#999999"/>
<circle cx="100.781" cy="235.156" r="33.0938" fill="#E0DDD8" stroke="#999999"/>
<circle cx="369.531" cy="235.156" r="33.0938" fill="#E0DDD8" stroke="#999999"/>
<circle cx="100.781" cy="768.922" r="33.0938" fill="#E0DDD8" stroke="#999999"/>
<circle cx="369.531" cy="768.922" r="33.0938" fill="#E0DDD8" stroke="#999999"/>
<circle cx="100.781" cy="503.906" r="33.0938" fill="#4E4E4E" stroke="#999999"/>
<circle cx="369.531" cy="503.906" r="33.0938" fill="#E0DDD8" stroke="#999999"/>
<circle cx="100.781" cy="1037.67" r="33.0938" fill="#E0DDD8" stroke="#999999"/>
<circle cx="369.531" cy="1037.67" r="33.0938" fill="#E0DDD8" stroke="#999999"/>
<circle cx="33.5938" cy="100.781" r="33.0938" fill="#E0DDD8" stroke="#999999"/>
<circle cx="302.344" cy="100.781" r="33.0938" fill="#E0DDD8" stroke="#999999"/>
<circle cx="33.5938" cy="634.547" r="33.0938" fill="#E0DDD8" stroke="#999999"/>
<circle cx="302.344" cy="634.547" r="33.0938" fill="#E0DDD8" stroke="#999999"/>
<circle cx="33.5938" cy="369.531" r="33.0938" fill="#E0DDD8" stroke="#999999"/>
<circle cx="302.344" cy="369.531" r="33.0938" fill="#E0DDD8" stroke="#999999"/>
<circle cx="33.5938" cy="903.297" r="33.0938" fill="#E0DDD8" stroke="#999999"/>
<circle cx="302.344" cy="903.297" r="33.0938" fill="#4E4E4E" stroke="#999999"/>
<circle cx="302.344" cy="235.156" r="33.0938" fill="#605F5C" stroke="#999999"/>
<circle cx="33.5938" cy="768.922" r="33.0938" fill="#E0DDD8" stroke="#999999"/>
<circle cx="302.344" cy="768.922" r="33.0938" fill="#E0DDD8" stroke="#999999"/>
<circle cx="33.5938" cy="503.906" r="33.0938" fill="#E0DDD8" stroke="#999999"/>
<circle cx="302.344" cy="503.906" r="33.0938" fill="#E0DDD8" stroke="#999999"/>
<circle cx="33.5938" cy="1037.67" r="33.0938" fill="#E0DDD8" stroke="#999999"/>
<circle cx="302.344" cy="1037.67" r="33.0938" fill="#E0DDD8" stroke="#999999"/>
<circle cx="235.156" cy="100.781" r="33.0938" fill="#605F5C" stroke="#999999"/>
<circle cx="503.906" cy="100.781" r="33.0938" fill="#1B1504" stroke="#999999"/>
<circle cx="235.156" cy="634.547" r="33.0938" fill="#999999" stroke="#999999"/>
<circle cx="503.906" cy="634.547" r="33.0938" fill="#E0DDD8" stroke="#999999"/>
<circle cx="235.156" cy="369.531" r="33.0938" fill="#1B1504" stroke="#999999"/>
<circle cx="503.906" cy="369.531" r="33.0938" fill="#E0DDD8" stroke="#999999"/>
<circle cx="235.156" cy="903.297" r="33.0938" fill="#E0DDD8" stroke="#999999"/>
<circle cx="503.906" cy="903.297" r="33.0938" fill="#E0DDD8" stroke="#999999"/>
<circle cx="235.156" cy="235.156" r="33.0938" fill="#E0DDD8" stroke="#999999"/>
<circle cx="503.906" cy="235.156" r="33.0938" fill="#E0DDD8" stroke="#999999"/>
<circle cx="235.156" cy="768.922" r="33.0938" fill="#999999" stroke="#999999"/>
<circle cx="503.906" cy="768.922" r="33.0938" fill="#E0DDD8" stroke="#999999"/>
<circle cx="235.156" cy="503.906" r="33.0938" fill="#E0DDD8" stroke="#999999"/>
<circle cx="503.906" cy="503.906" r="33.0938" fill="#E0DDD8" stroke="#999999"/>
<circle cx="235.156" cy="1037.67" r="33.0938" fill="#E0DDD8" stroke="#999999"/>
<circle cx="503.906" cy="1037.67" r="33.0938" fill="#605F5C" stroke="#999999"/>
</svg>
