<svg width="547" height="1157" viewBox="0 0 547 1157" fill="none" xmlns="http://www.w3.org/2000/svg">
<line x1="547" y1="408.5" x2="1" y2="408.5" stroke="#999999"/>
<line x1="547" y1="102.5" x2="1" y2="102.5" stroke="#999999"/>
<line x1="547" y1="510.5" x2="1" y2="510.5" stroke="#999999"/>
<line x1="547" y1="204.5" x2="1" y2="204.5" stroke="#999999"/>
<line x1="547" y1="612.5" x2="1" y2="612.5" stroke="#999999"/>
<line x1="547" y1="816.5" x2="1" y2="816.5" stroke="#999999"/>
<line x1="547" y1="306.5" x2="1" y2="306.5" stroke="#999999"/>
<line x1="547" y1="714.5" x2="1" y2="714.5" stroke="#999999"/>
<line x1="547" y1="918.5" x2="1" y2="918.5" stroke="#999999"/>
<line x1="547" y1="1054.5" x2="1" y2="1054.5" stroke="#999999"/>
<line x1="547" y1="34.5" x2="1" y2="34.5" stroke="#999999"/>
<line x1="547" y1="442.5" x2="1" y2="442.5" stroke="#999999"/>
<line x1="547" y1="136.5" x2="1" y2="136.5" stroke="#999999"/>
<line x1="547" y1="544.5" x2="1" y2="544.5" stroke="#999999"/>
<line x1="547" y1="238.5" x2="1" y2="238.5" stroke="#999999"/>
<line x1="547" y1="646.5" x2="1" y2="646.5" stroke="#999999"/>
<line x1="547" y1="850.5" x2="1" y2="850.5" stroke="#999999"/>
<line x1="547" y1="340.5" x2="1" y2="340.5" stroke="#999999"/>
<line x1="547" y1="748.5" x2="1" y2="748.5" stroke="#999999"/>
<line x1="547" y1="952.5" x2="1" y2="952.5" stroke="#999999"/>
<line x1="547" y1="1088.5" x2="1" y2="1088.5" stroke="#999999"/>
<line x1="547" y1="68.5" x2="1" y2="68.5" stroke="#999999"/>
<line x1="547" y1="476.5" x2="1" y2="476.5" stroke="#999999"/>
<line x1="547" y1="170.5" x2="1" y2="170.5" stroke="#999999"/>
<line x1="547" y1="578.5" x2="1" y2="578.5" stroke="#1B1504"/>
<line x1="547" y1="272.5" x2="1" y2="272.5" stroke="#999999"/>
<line x1="547" y1="680.5" x2="1" y2="680.5" stroke="#999999"/>
<line x1="547" y1="884.5" x2="1" y2="884.5" stroke="#999999"/>
<line x1="547" y1="1020.5" x2="1" y2="1020.5" stroke="#999999"/>
<line x1="547" y1="374.5" x2="1" y2="374.5" stroke="#999999"/>
<line x1="547" y1="782.5" x2="1" y2="782.5" stroke="#999999"/>
<line x1="547" y1="986.5" x2="1" y2="986.5" stroke="#999999"/>
<line x1="547" y1="1122.5" x2="1" y2="1122.5" stroke="#999999"/>
<line x1="547" y1="1156.5" x2="4.39331e-08" y2="1156.5" stroke="#1B1504"/>
<line x1="274.5" y1="1156" x2="274.5" y2="2.48992e-08" stroke="#1B1504"/>
<line x1="171.5" y1="1156" x2="171.5" y2="2.5088e-08" stroke="#999999"/>
<line x1="342.5" y1="1156" x2="342.5" y2="2.43713e-08" stroke="#999999"/>
<line x1="376.5" y1="1156" x2="376.5" y2="1.70762e-08" stroke="#999999"/>
<line x1="240.5" y1="1156" x2="240.5" y2="2.46357e-08" stroke="#999999"/>
<line x1="137.5" y1="1156" x2="137.5" y2="2.48328e-08" stroke="#999999"/>
<line x1="308.5" y1="1156" x2="308.5" y2="2.48785e-08" stroke="#999999"/>
<line x1="205.5" y1="1156" x2="205.5" y2="2.48328e-08" stroke="#999999"/>
<line x1="103.5" y1="1156" x2="103.5" y2="2.47667e-08" stroke="#999999"/>
<line x1="69.5" y1="1156" x2="69.5" y2="2.45707e-08" stroke="#999999"/>
<line x1="35.5" y1="1156" x2="35.5" y2="3.84805e-08" stroke="#999999"/>
<line x1="1.5" y1="1156" x2="1.49997" y2="3.84805e-08" stroke="#1B1504"/>
<line x1="410.5" y1="1156" x2="410.5" y2="2.59795e-08" stroke="#999999"/>
<line x1="478.5" y1="1156" x2="478.5" y2="2.59795e-08" stroke="#999999"/>
<line x1="444.5" y1="1156" x2="444.5" y2="2.59795e-08" stroke="#999999"/>
<line x1="512.5" y1="1156" x2="512.5" y2="2.59795e-08" stroke="#999999"/>
<line x1="546.5" y1="1156" x2="546.5" y2="2.59795e-08" stroke="#1B1504"/>
<line x1="547" y1="0.5" x2="1" y2="0.5" stroke="#1B1504"/>
<circle cx="229" cy="585" r="177" fill="#999999" fill-opacity="0.2"/>
<circle cx="325.5" cy="865.5" r="107" stroke="#999999" stroke-opacity="0.2" stroke-width="21"/>
</svg>
