<svg width="54" height="53" viewBox="0 0 54 53" fill="none" xmlns="http://www.w3.org/2000/svg">
<path d="M30.9881 17.3769C30.9881 9.93944 24.9588 3.91021 17.5214 3.91021C10.084 3.91021 4.05474 9.93944 4.05474 17.3769C4.05474 24.8143 10.084 30.8435 17.5214 30.8435V34.1873C8.23724 34.1873 0.710938 26.661 0.710938 17.3769C0.710938 8.09271 8.23724 0.566406 17.5214 0.566406C26.8056 0.566406 34.3319 8.09271 34.3319 17.3769C34.3319 26.661 26.8056 34.1873 17.5214 34.1873V30.8435C24.9588 30.8435 30.9881 24.8143 30.9881 17.3769Z" fill="#1B1504"/>
<path d="M52.5124 49.0339L52.6279 49.1617C53.163 49.8184 53.1244 50.7864 52.5124 51.3984C51.9005 52.0103 50.9325 52.049 50.2758 51.5138L50.148 51.3984L27.7768 29.0271C27.1239 28.3742 27.1239 27.3156 27.7768 26.6627C28.4297 26.0098 29.4883 26.0098 30.1412 26.6627L52.5124 49.0339Z" fill="#1B1504"/>
</svg>
