<svg width="218" height="195" viewBox="0 0 218 195" fill="none" xmlns="http://www.w3.org/2000/svg">
<path d="M16.0919 87.8003C48.2375 87.341 77.3066 75.5024 104.071 58.1106C112.658 52.531 141.359 36.978 135.668 21.8838C133.165 15.246 120.34 17.111 115.443 17.9343C97.6067 20.9333 83.0572 32.3094 71.794 45.9896C45.6404 77.7556 39.6862 117.418 27.3957 155.351C23.3546 167.823 17.3676 186.173 4.37943 192.667C0.994678 194.36 2.07136 189.12 2.54086 187.628C6.88169 173.84 19.3376 161.483 29.4386 151.81C63.268 119.415 105.593 106.751 149.559 94.4736C168.647 89.1435 186.421 84.2601 201.175 70.6402" stroke="#1B1504" stroke-width="3" stroke-linecap="round"/>
<path d="M184.013 22.8372C183.682 31.9323 180.959 39.4426 177.271 47.7602C176.486 49.5331 169.026 61.2244 169.849 63.6945C170.094 64.4279 170.883 62.5425 171.347 61.924C174.527 57.6849 177.767 53.5678 181.289 49.5988C190.001 39.7824 199.378 30.407 208.868 21.3391C209.112 21.106 216.282 14.6407 216.018 14.5296C212.32 12.9728 203.587 17.52 200.356 18.6834C192.301 21.5832 184.477 25.0579 176.25 27.4677C173.37 28.3113 164.682 29.9199 167.67 30.1915C179.789 31.2933 192.15 29.4415 204.305 30.4639C205.553 30.5688 219.584 34.5847 215.609 35.0263C197.407 37.0488 172.981 21.9014 172.981 2" stroke="#1B1504" stroke-width="3" stroke-linecap="round"/>
</svg>
