<svg width="376" height="236" viewBox="0 0 376 236" fill="none" xmlns="http://www.w3.org/2000/svg">
<line x1="351.848" y1="236" x2="351.848" y2="-1.69717e-08" stroke="#1B1504"/>
<line x1="304.848" y1="236" x2="304.848" y2="5.36726e-08" stroke="#999999"/>
<line x1="234.848" y1="236" x2="234.848" y2="5.36726e-08" stroke="#999999"/>
<line x1="164.848" y1="236" x2="164.848" y2="5.36726e-08" stroke="#999999"/>
<line x1="23.8479" y1="236" x2="23.8479" y2="5.36726e-08" stroke="#999999"/>
<line x1="94.8479" y1="236" x2="94.8479" y2="5.36726e-08" stroke="#999999"/>
<line x1="281.848" y1="236" x2="281.848" y2="5.36726e-08" stroke="#999999"/>
<line x1="211.848" y1="236" x2="211.848" y2="5.36726e-08" stroke="#999999"/>
<line x1="140.848" y1="236" x2="140.848" y2="5.36726e-08" stroke="#999999"/>
<line x1="0.5" y1="236" x2="0.500001" y2="2.06113" stroke="#999999"/>
<line x1="351.848" y1="236" x2="351.848" y2="5.36726e-08" stroke="#999999"/>
<line x1="70.8479" y1="236" x2="70.8479" y2="5.36726e-08" stroke="#999999"/>
<line x1="257.848" y1="236" x2="257.848" y2="5.36726e-08" stroke="#999999"/>
<line x1="187.848" y1="236" x2="187.848" y2="5.36726e-08" stroke="#1B1504"/>
<line x1="117.848" y1="236" x2="117.848" y2="5.36726e-08" stroke="#999999"/>
<line x1="328.848" y1="236" x2="328.848" y2="5.36726e-08" stroke="#999999"/>
<line x1="47.8479" y1="236" x2="47.8479" y2="5.36726e-08" stroke="#999999"/>
<line x1="0.5" y1="236" x2="0.5" stroke="#1B1504"/>
<line x1="1" y1="118.527" x2="375.302" y2="118.527" stroke="#1B1504"/>
<line x1="1" y1="47.6641" x2="375.302" y2="47.6641" stroke="#999999"/>
<line x1="1" y1="165.316" x2="375.302" y2="165.316" stroke="#999999"/>
<line x1="1" y1="188.711" x2="375.302" y2="188.711" stroke="#999999"/>
<line x1="1" y1="95.1367" x2="375.302" y2="95.1367" stroke="#999999"/>
<line x1="1" y1="24.2695" x2="375.302" y2="24.2695" stroke="#999999"/>
<line x1="1" y1="141.922" x2="375.302" y2="141.922" stroke="#999999"/>
<line x1="1" y1="71.0586" x2="375.302" y2="71.0586" stroke="#999999"/>
<line x1="1" y1="0.5" x2="375.302" y2="0.500011" stroke="#1B1504"/>
<line x1="1" y1="212.105" x2="375.302" y2="212.105" stroke="#999999"/>
<line x1="1" y1="235.5" x2="375.302" y2="235.5" stroke="#999999"/>
<line x1="1" y1="235.5" x2="375.302" y2="235.5" stroke="#1B1504"/>
<line x1="374.848" y1="236" x2="374.848" y2="5.36726e-08" stroke="#1B1504"/>
<circle cx="130.5" cy="118.5" r="117.5" fill="#999999" fill-opacity="0.2"/>
<circle cx="293" cy="184" r="30" stroke="#999999" stroke-opacity="0.2" stroke-width="10"/>
</svg>
