<svg width="23" height="23" viewBox="0 0 23 23" fill="none" xmlns="http://www.w3.org/2000/svg">
<path d="M10.4469 0.762205C10.8079 0.0288929 11.8484 0.0149216 12.229 0.738277L15.4154 6.79453C15.5096 6.97351 15.6558 7.11972 15.8348 7.21389L21.9877 10.4512C22.6922 10.8218 22.7023 11.8269 22.0055 12.2116L15.9479 15.5563C15.7829 15.6475 15.647 15.7834 15.5559 15.9484L12.1752 22.071C11.7979 22.7542 10.8184 22.7613 10.4314 22.0836L6.97341 16.0285C6.88477 15.8732 6.75615 15.7446 6.60095 15.656L0.634647 12.2487C-0.0614407 11.8512 -0.0303105 10.8373 0.688851 10.4832L6.9466 7.40225C7.1445 7.30482 7.30463 7.14469 7.40206 6.94679L10.4469 0.762205Z" fill="#1B1504"/>
</svg>
