<svg width="80" height="18" viewBox="0 0 80 18" fill="none" xmlns="http://www.w3.org/2000/svg">
<path d="M73.3399 13.7271L73.1035 10.5635L73.4308 10.5271C73.8308 12.3816 74.8126 13.4362 76.4126 13.4362C77.7036 13.4362 78.5945 12.7453 78.5945 11.5635C78.5945 10.4362 77.7218 9.79982 76.0672 9.23618C74.4308 8.67254 73.1944 7.94527 73.1944 6.45436C73.1944 4.94526 74.449 3.94526 76.3036 3.94526C77.4308 3.94526 78.0127 4.36344 78.3581 4.36344C78.6127 4.36344 78.7036 4.12708 78.6672 3.83617L78.9399 3.7998L79.6127 6.85436L79.2854 6.92709C78.7581 5.3089 77.7763 4.3089 76.3399 4.3089C75.2126 4.3089 74.4854 4.87253 74.4854 5.85436C74.4854 6.69072 75.0854 7.36345 76.9399 7.99982C78.8854 8.65436 79.849 9.59982 79.849 10.9816C79.849 12.7453 78.2854 13.7816 76.4854 13.7816C75.1581 13.7816 74.5035 13.218 74.0308 13.218C73.7399 13.218 73.5944 13.418 73.5944 13.7089L73.3399 13.7271Z" fill="#FEFEFE"/>
<path d="M66.3135 13.7271L66.0771 10.5635L66.4044 10.5271C66.8044 12.3816 67.7863 13.4362 69.3863 13.4362C70.6772 13.4362 71.5681 12.7453 71.5681 11.5635C71.5681 10.4362 70.6954 9.79982 69.0408 9.23618C67.4044 8.67254 66.1681 7.94527 66.1681 6.45436C66.1681 4.94526 67.4226 3.94526 69.2772 3.94526C70.4045 3.94526 70.9863 4.36344 71.3318 4.36344C71.5863 4.36344 71.6772 4.12708 71.6408 3.83617L71.9136 3.7998L72.5863 6.85436L72.259 6.92709C71.7318 5.3089 70.7499 4.3089 69.3136 4.3089C68.1863 4.3089 67.459 4.87253 67.459 5.85436C67.459 6.69072 68.059 7.36345 69.9136 7.99982C71.859 8.65436 72.8227 9.59982 72.8227 10.9816C72.8227 12.7453 71.259 13.7816 69.459 13.7816C68.1317 13.7816 67.4772 13.218 67.0044 13.218C66.7135 13.218 66.5681 13.418 66.5681 13.7089L66.3135 13.7271Z" fill="#FEFEFE"/>
<path d="M61.6949 13.7817C59.204 13.7817 57.113 12.1817 57.113 9.05442C57.113 5.89077 59.2585 3.94531 61.8767 3.94531C63.9858 3.94531 65.404 5.21804 65.404 6.89077C65.404 7.67259 65.204 7.83623 64.0949 7.83623H58.7494C58.7312 8.0726 58.7131 8.30896 58.7131 8.54532C58.7131 11.0726 60.1676 12.9272 62.3676 12.9272C63.9313 12.9272 65.0586 12.0181 65.8768 10.7271L66.1131 10.8726C65.0586 12.7272 63.6949 13.7817 61.6949 13.7817ZM58.804 7.49078H62.004C63.5131 7.49078 63.804 7.41805 63.804 6.7635C63.804 5.39986 63.1131 4.29077 61.6585 4.29077C59.9494 4.29077 59.0585 5.83623 58.804 7.49078Z" fill="#FEFEFE"/>
<path d="M52.9826 13.7817C50.5099 13.7817 48.4189 12.0908 48.4189 9.10896C48.4189 5.98168 50.6735 3.94531 53.3463 3.94531C55.1463 3.94531 56.5645 4.85441 56.5645 5.69077C56.5645 6.12714 56.2736 6.38168 55.8372 6.38168C54.6008 6.38168 54.7645 4.32713 52.9281 4.32713C51.2008 4.32713 50.0008 6.01804 50.0008 8.4726C50.0008 11.2181 51.4553 12.9453 53.619 12.9453C55.2008 12.9453 56.3463 12.0181 57.1463 10.709L57.3827 10.8726C56.3099 12.7453 54.9281 13.7817 52.9826 13.7817Z" fill="#FEFEFE"/>
<path d="M43.1893 13.7817C40.6075 13.7817 38.3711 12.2181 38.3711 8.96351C38.3711 5.67259 40.6438 3.94531 43.3348 3.94531C45.8984 3.94531 48.153 5.50895 48.153 8.78169C48.153 12.0726 45.8803 13.7817 43.1893 13.7817ZM40.0257 8.78169C40.0257 11.6726 41.3711 13.4362 43.2621 13.4362C45.1166 13.4362 46.4803 11.7453 46.4803 8.94532C46.4803 6.07259 45.1348 4.29077 43.2621 4.29077C41.4075 4.29077 40.0257 5.98168 40.0257 8.78169Z" fill="#FEFEFE"/>
<path d="M32.0686 13.1271C33.1413 13.1271 33.4141 12.8362 33.4141 10.818V5.56349H32.0868V5.23621C33.0686 5.23621 34.2141 4.76348 34.5777 3.90894H34.905V6.30894H34.9595C35.5959 5.05439 36.5232 3.99985 37.5959 3.99985C38.2505 3.99985 38.705 4.41803 38.705 5.01803C38.705 5.52712 38.3778 5.83621 37.9778 5.83621C37.4323 5.83621 37.1778 5.23621 36.6687 5.23621C35.9959 5.23621 35.4141 5.98167 34.905 7.09076V10.818C34.905 12.8362 35.1232 13.1271 36.2687 13.1271H36.5959V13.4544H32.0686V13.1271Z" fill="#FEFEFE"/>
<path d="M21.7196 17.6729C22.7742 17.6729 23.0469 17.3819 23.0469 15.3638V5.54555H21.7014V5.23646C22.6832 5.23646 23.8105 4.76373 24.1742 3.90918H24.5196V5.67282H24.556C25.4287 4.70918 26.556 3.94554 28.0651 3.94554C30.1015 3.94554 32.0288 5.36373 32.0288 8.58192C32.0288 12.0365 29.847 13.7819 27.1742 13.7819C26.2469 13.7819 25.3015 13.5637 24.5378 13.1092V15.3638C24.5378 17.3819 24.7378 17.6729 25.8651 17.6729H26.2469V18.0001H21.7196V17.6729ZM24.5378 12.2365C25.2105 12.9092 26.1015 13.4365 27.1742 13.4365C29.0833 13.4365 30.4106 11.8001 30.4106 9.0001C30.4106 6.32737 29.1924 4.72736 27.3015 4.72736C26.4469 4.72736 25.5015 5.07282 24.5378 6.21828V12.2365Z" fill="#FEFEFE"/>
<path d="M10.7719 13.1274C11.7719 13.1274 12.081 12.8365 12.081 10.8183V7.32737C12.081 5.691 11.3174 4.83646 10.0264 4.83646C8.99007 4.83646 7.80824 5.41827 6.89914 6.30919V10.8183C6.89914 12.8365 7.0446 13.1274 8.22643 13.1274V13.4547H4.06274V13.1274C5.1173 13.1274 5.40821 12.8365 5.40821 10.8183V5.56373H4.08093V5.23646C5.04457 5.23646 6.19004 4.76373 6.57186 3.90918H6.89914V5.83646H6.91732C7.86279 4.85464 9.35371 3.94554 10.7719 3.94554C12.3719 3.94554 13.5719 4.85464 13.5719 7.32737V10.8183C13.5719 12.8365 13.7174 13.1274 14.9174 13.1274V13.4547H10.7719V13.1274Z" fill="#FEFEFE"/>
<path d="M0 13.1273C1.05456 13.1273 1.34547 12.8364 1.34547 10.8182V5.58183H0.018182V5.23638C0.981829 5.23638 2.1273 4.76365 2.50912 3.9091H2.83639V10.8182C2.83639 12.8364 2.87276 13.1273 4.18186 13.1273V13.4546H0V13.1273ZM1.05456 1.07273C1.05456 0.472728 1.50911 0 2.09093 0C2.67276 0 3.12731 0.472728 3.12731 1.07273C3.12731 1.67273 2.67276 2.12728 2.09093 2.12728C1.50911 2.12728 1.05456 1.67273 1.05456 1.07273Z" fill="#FEFEFE"/>
<ellipse cx="1.71979" cy="0.3142" rx="1.71979" ry="0.3142" transform="matrix(0.695224 -0.718793 0.718814 0.695203 16.6785 9.9292)" fill="#FEFEFE"/>
</svg>
